<?xml version="1.0" encoding="utf-8"?>
<!-- Generator: Adobe Illustrator 15.0.0, SVG Export Plug-In . SVG Version: 6.00 Build 0)  -->
<!DOCTYPE svg PUBLIC "-//W3C//DTD SVG 1.1//EN" "http://www.w3.org/Graphics/SVG/1.1/DTD/svg11.dtd">
<svg version="1.1" id="Layer_1" xmlns="http://www.w3.org/2000/svg" xmlns:xlink="http://www.w3.org/1999/xlink" x="0px" y="0px"
	 width="27px" height="20px" viewBox="0 0 27 20" enable-background="new 0 0 27 20" xml:space="preserve">
<path fill="#54575B" d="M13.637,11.031c-0.254,0-0.512-0.086-0.723-0.262c-0.48-0.398-0.543-1.114-0.145-1.595l5.648-6.781
	c0.397-0.48,1.112-0.543,1.595-0.145c0.48,0.398,0.543,1.113,0.145,1.594l-5.652,6.781C14.281,10.895,13.961,11.031,13.637,11.031z
	 M22.68,9.902v1.129c0,0.625-0.504,1.129-1.129,1.129l-1.133,6.785H6.855l-1.133-6.781c-0.625,0-1.129-0.504-1.129-1.129V9.906
	c0-0.625,0.508-1.129,1.129-1.129h6.648l-0.039,0.047c-0.598,0.719-0.5,1.79,0.219,2.387c0.305,0.254,0.688,0.395,1.086,0.395
	c0.504,0,0.98-0.223,1.305-0.608l1.848-2.215h4.762C22.176,8.773,22.68,9.277,22.68,9.902z M9.68,13.859
	c0-0.313-0.254-0.566-0.566-0.566c-0.312,0-0.566,0.254-0.566,0.566v3.391c0,0.313,0.254,0.566,0.566,0.566
	c0.312,0,0.566-0.254,0.566-0.566V13.859z M11.941,13.859c0-0.313-0.254-0.566-0.566-0.566s-0.566,0.254-0.566,0.566v3.391
	c0,0.313,0.254,0.566,0.566,0.566s0.566-0.254,0.566-0.566V13.859z M14.203,13.859c0-0.313-0.254-0.566-0.566-0.566
	s-0.566,0.254-0.566,0.566v3.391c0,0.313,0.254,0.566,0.566,0.566s0.566-0.254,0.566-0.566V13.859z M16.461,13.859
	c0-0.313-0.254-0.566-0.566-0.566c-0.312,0-0.565,0.254-0.565,0.566v3.391c0,0.313,0.254,0.566,0.565,0.566
	c0.313,0,0.566-0.254,0.566-0.566V13.859z M18.723,13.859c0-0.313-0.254-0.566-0.565-0.566s-0.566,0.254-0.566,0.566v3.391
	c0,0.313,0.255,0.566,0.566,0.566s0.565-0.254,0.565-0.566V13.859z"/>
</svg>
