<svg xmlns="http://www.w3.org/2000/svg" width="261.255" height="436.003" viewBox="0 0 261.255 436.003">
  <g id="map-marker" transform="translate(-88.695 505.003)">
    <path id="Path_1" data-name="Path 1" d="M196.56-503.54a138.94,138.94,0,0,0-51.79,21.03c-9.05,6.04-23.95,20.25-30.47,28.91-23.07,30.86-31.05,70.67-21.9,108.83a135.64,135.64,0,0,0,4.87,16.06C101.07-319.37,218.85-69,219.44-69c1.17,0,120.22-254.26,123.72-264.29a166.1,166.1,0,0,0,5.26-19.47c2.04-11.58,2.04-34.17,0-45.75a133.263,133.263,0,0,0-22.58-53.25c-6.91-9.64-21.9-24.24-31.44-30.66-15.48-10.42-34.75-18.2-52.47-21.12C230.53-505.49,207.36-505.49,196.56-503.54Zm36.4,80.11c18.98,5.94,31.25,22.78,31.25,43.03,0,25.31-19.37,44.68-44.78,44.68s-44.78-19.37-44.78-44.68c0-20.05,12.17-36.99,30.96-43.03C213.2-425.76,225.27-425.86,232.96-423.43Z" fill="#54575b"/>
  </g>
</svg>