<?xml version="1.0" encoding="utf-8"?>
<!-- Generator: Adobe Illustrator 15.0.0, SVG Export Plug-In . SVG Version: 6.00 Build 0)  -->
<!DOCTYPE svg PUBLIC "-//W3C//DTD SVG 1.1//EN" "http://www.w3.org/Graphics/SVG/1.1/DTD/svg11.dtd">
<svg version="1.1" id="Capa_1" xmlns="http://www.w3.org/2000/svg" xmlns:xlink="http://www.w3.org/1999/xlink" x="0px" y="0px"
	 width="841.889px" height="595.281px" viewBox="0 0 841.889 595.281" enable-background="new 0 0 841.889 595.281"
	 xml:space="preserve">
<path fill="#54575B" d="M670.82,390.733c-36.445,0-72.23-5.7-106.142-16.906c-16.616-5.668-37.043-0.468-47.185,9.947
	l-66.934,50.528c-77.623-41.436-125.438-89.235-166.308-166.276l49.041-65.189c12.741-12.724,17.311-31.311,11.836-48.751
	c-11.255-34.089-16.972-69.856-16.972-106.317C328.158,21.428,306.73,0,280.392,0h-109.32c-26.338,0-47.767,21.429-47.767,47.767
	c0,301.903,245.611,547.515,547.515,547.515c26.338,0,47.767-21.429,47.767-47.767V438.499
	C718.584,412.162,697.156,390.733,670.82,390.733z"/>
</svg>
