<?xml version="1.0" encoding="utf-8"?>
<!-- Generator: Adobe Illustrator 15.0.0, SVG Export Plug-In . SVG Version: 6.00 Build 0)  -->
<!DOCTYPE svg PUBLIC "-//W3C//DTD SVG 1.1//EN" "http://www.w3.org/Graphics/SVG/1.1/DTD/svg11.dtd">
<svg version="1.1" id="Layer_1" xmlns="http://www.w3.org/2000/svg" xmlns:xlink="http://www.w3.org/1999/xlink" x="0px" y="0px"
	 width="27px" height="20px" viewBox="0 0 27 20" enable-background="new 0 0 27 20" xml:space="preserve">
<path fill="#54575B" d="M19.002,11.579c-2.305-0.753-3.264-1.689-3.264-1.689l-0.076,0.074c-0.686,0.644-1.441,1.022-2.131,1.022
	h-0.065c-0.689,0-1.446-0.379-2.131-1.022L11.257,9.89c0,0-0.958,0.936-3.263,1.689c-3.402,1.271-2.38,6.444-2.381,6.483
	c0.107,0.576,0.169,0.773,0.224,0.797c3.417,1.521,11.905,1.521,15.323,0c0.054-0.022,0.115-0.221,0.224-0.797
	C21.383,18.023,22.418,12.871,19.002,11.579z"/>
<path fill="#54575B" d="M17.07,4.98l-0.027-0.031c-0.191-0.176-0.176-0.165-0.176-0.165s0.334-1.685,0.066-2.482
	c-0.42-1.272-2.933-2.125-3.437-2.223c0,0-0.308-0.063-0.326-0.063c-0.291-0.041-0.587,0-0.855,0.12
	c-0.299,0.115-1.862,0.824-2.306,2.167C9.742,3.1,10.076,4.785,10.076,4.785S10.091,4.775,9.9,4.95L9.873,4.982
	c-0.13,0.147-0.098,0.607,0.044,1.085c0.128,0.48,0.295,0.609,0.335,0.721c0.406,1.907,1.818,3.535,3.256,3.535
	c1.438,0,2.776-1.628,3.182-3.535c0.041-0.112,0.209-0.241,0.336-0.721C17.169,5.587,17.205,5.096,17.07,4.98z"/>
</svg>
